<svg width="18" height="18" viewBox="0 0 18 18" fill="none" xmlns="http://www.w3.org/2000/svg">
<path fill-rule="evenodd" clip-rule="evenodd" d="M8.58862 1.23228C8.84325 1.0894 9.15675 1.0894 9.411 1.23228C10.6691 1.9384 14.4551 4.0639 15.7136 4.77003C15.9683 4.91253 16.125 5.17653 16.125 5.46228C16.125 6.87453 16.125 11.1252 16.125 12.5374C16.125 12.8232 15.9683 13.0872 15.7136 13.23C14.4555 13.9362 10.6695 16.0617 9.411 16.7678C9.15638 16.9107 8.84288 16.9107 8.58862 16.7678C7.3305 16.0617 3.5445 13.9362 2.286 13.23C2.03175 13.0872 1.875 12.8235 1.875 12.5378C1.875 11.1255 1.875 6.8749 1.875 5.46265C1.875 5.1769 2.03175 4.9129 2.28638 4.77003C3.54413 4.0639 7.33087 1.9384 8.58862 1.23228Z" fill="#37474F"/>
<path fill-rule="evenodd" clip-rule="evenodd" d="M1.989 12.9015C1.88925 12.768 1.875 12.6412 1.875 12.4706C1.875 11.0666 1.875 6.84036 1.875 5.43598C1.875 5.15173 2.03137 4.88923 2.28525 4.74748C3.53887 4.04548 7.31212 1.93236 8.56575 1.22998C8.81962 1.08786 9.1635 1.09086 9.41738 1.23298C10.671 1.93498 14.4315 4.03011 15.6851 4.73211C15.7864 4.78911 15.8636 4.85773 15.9326 4.94811L1.989 12.9015Z" fill="#546E7A"/>
<path fill-rule="evenodd" clip-rule="evenodd" d="M9 3.75C11.8976 3.75 14.25 6.10238 14.25 9C14.25 11.8976 11.8976 14.25 9 14.25C6.10238 14.25 3.75 11.8976 3.75 9C3.75 6.10238 6.10238 3.75 9 3.75ZM9 6.375C10.4486 6.375 11.625 7.551 11.625 9C11.625 10.4486 10.4486 11.625 9 11.625C7.55137 11.625 6.375 10.4486 6.375 9C6.375 7.551 7.551 6.375 9 6.375Z" fill="white"/>
<path fill-rule="evenodd" clip-rule="evenodd" d="M15.9319 4.9519C16.1254 5.13303 16.1217 5.40603 16.1217 5.6209C16.1217 7.04403 16.1097 11.0918 16.125 12.5149C16.1265 12.6634 16.0774 12.8198 16.0039 12.9375L8.84741 9.00003L15.9319 4.9519Z" fill="#455A64"/>
<path fill-rule="evenodd" clip-rule="evenodd" d="M12.75 7.5H13.125V10.5H12.75V7.5ZM13.875 7.5H14.25V10.5H13.875V7.5Z" fill="white"/>
<path fill-rule="evenodd" clip-rule="evenodd" d="M12 9.375H15V9.75H12V9.375ZM12 8.25H15V8.625H12V8.25Z" fill="white"/>
</svg>
