<svg width="18" height="18" viewBox="0 0 18 18" fill="none" xmlns="http://www.w3.org/2000/svg">
<path d="M15.375 1.875H2.625L3.75 14.625L9 16.125L14.25 14.625L15.375 1.875Z" fill="#0277BD"/>
<path d="M9 3V14.9625L13.2 13.7625L14.1375 3H9Z" fill="#039BE5"/>
<path d="M12.4125 4.875H9V6.375H10.8375L10.725 7.875H9V9.375H10.65L10.5375 11.0625L9 11.5875V13.1625L11.9625 12.1875L12.225 7.875L12.4125 4.875Z" fill="white"/>
<path d="M9.00005 4.875V6.375H5.66255L5.55005 4.875H9.00005ZM7.27505 7.875L7.35005 9.375H9.00005V7.875H7.27505ZM7.42505 10.125H5.92505L6.03755 12.1875L9.00005 13.1625V11.5875L7.46255 11.0625L7.42505 10.125Z" fill="#EEEEEE"/>
</svg>
