<svg width="18" height="18" viewBox="0 0 18 18" fill="none" xmlns="http://www.w3.org/2000/svg">
<path d="M2.25 15.75V2.25H15.75V15.75H2.25Z" fill="#FFD600"/>
<path d="M11.0768 12.3551C11.3363 12.7766 11.6183 13.1805 12.2156 13.1805C12.7174 13.1805 12.9806 12.9311 12.9806 12.5861C12.9806 12.1732 12.7084 12.0266 12.1564 11.7863L11.8538 11.6573C10.9804 11.2868 10.3995 10.8225 10.3995 9.84188C10.3995 8.93813 11.0914 8.25037 12.1725 8.25037C12.9424 8.25037 13.4955 8.517 13.8945 9.21525L12.9518 9.81787C12.7444 9.44737 12.5201 9.3015 12.1725 9.3015C11.8178 9.3015 11.5931 9.52537 11.5931 9.81787C11.5931 10.1794 11.8181 10.3256 12.3375 10.5495L12.6401 10.6785C13.6695 11.1169 14.25 11.5646 14.25 12.5711C14.25 13.6556 13.3935 14.25 12.2438 14.25C11.1191 14.25 10.4805 13.6856 10.125 12.987L11.0768 12.3551ZM6.732 12.3859C6.92175 12.7256 7.21013 12.987 7.62488 12.987C8.02163 12.987 8.25 12.8303 8.25 12.2209V8.25H9.49988V12.4129C9.49988 13.6755 8.7675 14.25 7.698 14.25C6.73163 14.25 6.03413 13.5953 5.74988 12.987L6.732 12.3859Z" fill="#000001"/>
</svg>
