<svg width="295" height="40" viewBox="0 0 295 40" fill="none" xmlns="http://www.w3.org/2000/svg">
<path d="M21.64 39L19.912 31.848H10.216L8.53598 39H0.375977L10.408 5.73599H19.96L29.992 39H21.64ZM11.56 26.136H18.568L15.064 11.448L11.56 26.136Z" fill="#141214"/>
<path d="M46.1125 12.792C47.0405 12.792 47.8885 12.904 48.6565 13.128L47.4565 20.472C46.4965 20.248 45.7285 20.136 45.1525 20.136C43.6485 20.136 42.4965 20.664 41.6965 21.72C40.9285 22.744 40.3205 24.296 39.8725 26.376V39H32.2885V13.512H38.9125L39.5365 18.456C40.1125 16.696 40.9765 15.32 42.1285 14.328C43.3125 13.304 44.6405 12.792 46.1125 12.792Z" fill="#141214"/>
<path d="M67.5381 37.8C66.6101 38.44 65.5221 38.936 64.2741 39.288C63.0581 39.64 61.8421 39.816 60.6261 39.816C55.0581 39.784 52.2741 36.712 52.2741 30.6V18.792H48.6741V13.512H52.2741V7.99199L59.8581 7.12799V13.512H65.7141L64.8981 18.792H59.8581V30.504C59.8581 31.688 60.0501 32.536 60.4341 33.048C60.8181 33.56 61.4261 33.816 62.2581 33.816C63.1221 33.816 64.0341 33.544 64.9941 33L67.5381 37.8Z" fill="#141214"/>
<path d="M84.9977 12.696C87.2057 12.696 88.9337 13.368 90.1817 14.712C91.4297 16.056 92.0537 17.944 92.0537 20.376V39H84.4697V21.672C84.4697 20.392 84.2617 19.512 83.8457 19.032C83.4297 18.52 82.8377 18.264 82.0697 18.264C80.5337 18.264 79.0617 19.352 77.6537 21.528V39H70.0697V3.38399L77.6537 2.61599V16.248C78.7097 15.064 79.8297 14.184 81.0137 13.608C82.1977 13 83.5257 12.696 84.9977 12.696Z" fill="#141214"/>
<path d="M119.277 39H112.701L112.365 35.784C110.509 38.472 107.933 39.816 104.637 39.816C102.301 39.816 100.525 39.112 99.3089 37.704C98.1249 36.296 97.5329 34.328 97.5329 31.8V13.512H105.117V30.84C105.117 32.088 105.309 32.968 105.693 33.48C106.109 33.96 106.733 34.2 107.565 34.2C109.165 34.2 110.541 33.208 111.693 31.224V13.512H119.277V39Z" fill="#141214"/>
<path d="M139.066 12.792C139.994 12.792 140.842 12.904 141.61 13.128L140.41 20.472C139.45 20.248 138.682 20.136 138.106 20.136C136.602 20.136 135.45 20.664 134.65 21.72C133.882 22.744 133.274 24.296 132.826 26.376V39H125.242V13.512H131.866L132.49 18.456C133.066 16.696 133.93 15.32 135.082 14.328C136.266 13.304 137.594 12.792 139.066 12.792Z" fill="#141214"/>
<path d="M189.066 39H181.338L180.762 25.992C180.602 22.888 180.522 20.12 180.522 17.688C180.522 15.832 180.57 14.072 180.666 12.408L175.53 35.496H168.09L162.618 12.408C162.81 15.192 162.906 17.816 162.906 20.28C162.906 22.136 162.858 24.072 162.762 26.088L162.186 39H154.506L157.002 5.73599H166.938L171.93 28.296L176.586 5.73599H186.57L189.066 39Z" fill="#141214"/>
<path d="M213.888 31.608C213.888 32.568 214.016 33.272 214.272 33.72C214.56 34.168 215.008 34.504 215.616 34.728L214.032 39.672C212.464 39.544 211.184 39.208 210.192 38.664C209.2 38.088 208.432 37.192 207.888 35.976C206.224 38.536 203.664 39.816 200.208 39.816C197.68 39.816 195.664 39.08 194.16 37.608C192.656 36.136 191.904 34.216 191.904 31.848C191.904 29.064 192.928 26.936 194.976 25.464C197.024 23.992 199.984 23.256 203.856 23.256H206.448V22.152C206.448 20.648 206.128 19.624 205.488 19.08C204.848 18.504 203.728 18.216 202.128 18.216C201.296 18.216 200.288 18.344 199.104 18.6C197.92 18.824 196.704 19.144 195.456 19.56L193.728 14.568C195.328 13.96 196.96 13.496 198.624 13.176C200.32 12.856 201.888 12.696 203.328 12.696C206.976 12.696 209.648 13.448 211.344 14.952C213.04 16.456 213.888 18.712 213.888 21.72V31.608ZM202.416 34.392C204.144 34.392 205.488 33.576 206.448 31.944V27.432H204.576C202.848 27.432 201.552 27.736 200.688 28.344C199.856 28.952 199.44 29.896 199.44 31.176C199.44 32.2 199.696 33 200.208 33.576C200.752 34.12 201.488 34.392 202.416 34.392Z" fill="#141214"/>
<path d="M230.969 12.696C232.729 12.696 234.313 12.952 235.721 13.464C237.129 13.976 238.457 14.76 239.705 15.816L236.441 20.328C234.841 19.112 233.225 18.504 231.593 18.504C229.897 18.504 228.617 19.128 227.753 20.376C226.889 21.624 226.457 23.64 226.457 26.424C226.457 29.112 226.889 31.016 227.753 32.136C228.617 33.256 229.865 33.816 231.497 33.816C232.361 33.816 233.145 33.688 233.849 33.432C234.553 33.144 235.401 32.696 236.393 32.088L239.705 36.792C237.177 38.808 234.313 39.816 231.113 39.816C228.521 39.816 226.281 39.272 224.393 38.184C222.505 37.064 221.049 35.512 220.025 33.528C219.001 31.512 218.489 29.16 218.489 26.472C218.489 23.784 219.001 21.4 220.025 19.32C221.049 17.24 222.505 15.624 224.393 14.472C226.281 13.288 228.473 12.696 230.969 12.696Z" fill="#141214"/>
<path d="M250.482 13.512V39H242.898V13.512H250.482ZM246.642 0.071991C247.954 0.071991 249.026 0.487991 249.858 1.31999C250.722 2.11999 251.154 3.14399 251.154 4.39199C251.154 5.63999 250.722 6.67999 249.858 7.51199C249.026 8.31199 247.954 8.71199 246.642 8.71199C245.33 8.71199 244.258 8.31199 243.426 7.51199C242.594 6.67999 242.178 5.63999 242.178 4.39199C242.178 3.14399 242.594 2.11999 243.426 1.31999C244.258 0.487991 245.33 0.071991 246.642 0.071991Z" fill="#141214"/>
<path d="M278.669 25.752C278.669 26.808 278.621 27.72 278.525 28.488H262.733C262.989 30.632 263.597 32.136 264.557 33C265.517 33.864 266.845 34.296 268.541 34.296C269.565 34.296 270.557 34.12 271.517 33.768C272.477 33.384 273.517 32.808 274.637 32.04L277.757 36.264C274.781 38.632 271.469 39.816 267.821 39.816C263.693 39.816 260.525 38.6 258.317 36.168C256.109 33.736 255.005 30.472 255.005 26.376C255.005 23.784 255.469 21.464 256.397 19.416C257.325 17.336 258.685 15.704 260.477 14.52C262.269 13.304 264.413 12.696 266.909 12.696C270.589 12.696 273.469 13.848 275.549 16.152C277.629 18.456 278.669 21.656 278.669 25.752ZM271.229 23.592C271.165 19.688 269.789 17.736 267.101 17.736C265.789 17.736 264.765 18.216 264.029 19.176C263.325 20.136 262.893 21.72 262.733 23.928H271.229V23.592Z" fill="#141214"/>
<path d="M289.697 39.816C287.489 39.816 285.761 39.192 284.513 37.944C283.297 36.664 282.689 34.856 282.689 32.52V3.38399L290.273 2.56799V32.232C290.273 33.288 290.705 33.816 291.569 33.816C292.017 33.816 292.433 33.736 292.817 33.576L294.305 38.952C292.929 39.528 291.393 39.816 289.697 39.816Z" fill="#141214"/>
</svg>
