<svg width="18" height="18" viewBox="0 0 18 18" fill="none" xmlns="http://www.w3.org/2000/svg">
<path d="M9.01761 1.87503C8.43448 1.8769 8.03023 1.92828 7.54161 2.01265C6.09861 2.2639 5.83573 2.79153 5.83573 3.7639V5.25003H9.21073V6.00003H5.70748H4.07623C3.08773 6.00003 2.22261 6.46578 1.94848 7.58215C1.63873 8.86353 1.62486 9.66603 1.94848 11.004C2.19411 12.0019 2.73523 12.75 3.72411 12.75H5.08611V10.836C5.08611 9.72378 6.09336 8.62503 7.24761 8.62503H9.96111C10.9072 8.62503 11.8361 7.92678 11.8361 6.98365V3.7639C11.8361 2.84928 11.1765 2.16528 10.2544 2.0119C10.2772 2.00965 9.59586 1.87278 9.01761 1.87503ZM7.14861 3.37503C7.45648 3.37503 7.71111 3.6289 7.71111 3.93828C7.71111 4.25065 7.45648 4.50003 7.14861 4.50003C6.83473 4.50003 6.58611 4.25103 6.58611 3.93828C6.58611 3.63003 6.83473 3.37503 7.14861 3.37503Z" fill="#0277BD"/>
<path d="M8.65419 16.125C9.23732 16.1231 9.64157 16.0717 10.1302 15.9874C11.5732 15.7361 11.8361 15.2085 11.8361 14.2361V12.75H8.46107V12H11.9647H13.5959C14.5844 12 15.4496 11.5342 15.7237 10.4179C16.0334 9.1365 16.0473 8.334 15.7237 6.996C15.4777 5.99813 14.9366 5.25 13.9477 5.25H12.5857V7.164C12.5857 8.27625 11.5784 9.375 10.4242 9.375H7.71069C6.76457 9.375 5.83569 10.0732 5.83569 11.0164V14.2361C5.83569 15.1507 6.49532 15.8347 7.41744 15.9881C7.39457 15.9904 8.07594 16.1272 8.65419 16.125ZM10.5236 14.625C10.2157 14.625 9.96107 14.3711 9.96107 14.0617C9.96107 13.7494 10.2157 13.5 10.5236 13.5C10.8374 13.5 11.0861 13.749 11.0861 14.0617C11.0861 14.37 10.8371 14.625 10.5236 14.625Z" fill="#FFC107"/>
</svg>
