<svg width="18" height="18" viewBox="0 0 18 18" fill="none" xmlns="http://www.w3.org/2000/svg">
<path d="M9 12.75C4.1625 12.75 0.375 11.1 0.375 9C0.375 6.9 4.1625 5.25 9 5.25C13.8375 5.25 17.625 6.9 17.625 9C17.625 11.1 13.8375 12.75 9 12.75ZM9 6C4.275 6 1.125 7.5375 1.125 9C1.125 10.4625 4.275 12 9 12C13.725 12 16.875 10.4625 16.875 9C16.875 7.5375 13.725 6 9 6Z" fill="#80DEEA"/>
<path d="M5.66247 16.725C5.28747 16.725 4.98747 16.65 4.68747 16.4625C2.84997 15.4125 3.33747 11.325 5.73747 7.12499C6.86247 5.17499 8.24997 3.52499 9.59997 2.47499C11.0625 1.34999 12.375 1.01249 13.275 1.53749C14.2125 2.06249 14.55 3.37499 14.325 5.21249C14.1 6.93749 13.35 8.96249 12.225 10.9125C11.1 12.8625 9.71247 14.5125 8.36247 15.5625C7.38747 16.3125 6.44997 16.725 5.66247 16.725ZM12.3375 2.02499C11.7375 2.02499 10.95 2.36249 10.0875 3.03749C8.81247 4.04999 7.49997 5.62499 6.41247 7.49999C4.04997 11.5875 3.82497 15.1125 5.06247 15.825C5.69997 16.2 6.74997 15.8625 7.91247 14.9625C9.18747 13.95 10.5 12.375 11.5875 10.5C12.675 8.62499 13.3875 6.71249 13.6125 5.09999C13.8 3.59999 13.575 2.54999 12.9375 2.17499C12.75 2.09999 12.5625 2.02499 12.3375 2.02499Z" fill="#80DEEA"/>
<path d="M12.375 16.725C10.5 16.725 7.79996 14.4375 5.77496 10.875C3.33746 6.67503 2.84996 2.58753 4.68746 1.53753C6.52496 0.487526 9.82496 2.92503 12.2625 7.12503C13.3875 9.07503 14.1375 11.1 14.3625 12.825C14.625 14.6625 14.25 15.9375 13.3125 16.5C13.0125 16.65 12.7125 16.725 12.375 16.725ZM5.06246 2.17503C3.82496 2.88753 4.04996 6.41253 6.41246 10.5C8.77496 14.5875 11.7 16.5375 12.9375 15.825C13.575 15.45 13.8 14.4 13.6125 12.9C13.3875 11.2875 12.675 9.37503 11.5875 7.50003C9.22496 3.41253 6.29996 1.46253 5.06246 2.17503Z" fill="#80DEEA"/>
<path d="M9 10.5C9.82843 10.5 10.5 9.82843 10.5 9C10.5 8.17157 9.82843 7.5 9 7.5C8.17157 7.5 7.5 8.17157 7.5 9C7.5 9.82843 8.17157 10.5 9 10.5Z" fill="#80DEEA"/>
</svg>
